<svg width="48" height="48" viewBox="0 0 48 48" fill="none" xmlns="http://www.w3.org/2000/svg">
<rect x="1" y="1" width="46" height="46" rx="23" stroke="black" stroke-width="2"/>
<path fill-rule="evenodd" clip-rule="evenodd" d="M30.8464 19.5452V19.5468V19.5452ZM22.0939 28.9977C22.1139 28.9977 22.1355 28.9986 22.1555 29.0002C26.9014 28.9694 29.7339 25.3436 29.7339 21.8386C29.7339 21.5202 29.8972 21.3144 30.0422 21.1319C30.1739 20.9652 30.378 20.7086 30.5597 20.3386C29.8989 20.3319 29.3089 20.0386 28.9655 19.6369C28.6064 19.2527 28.0905 19.0177 27.5339 19.0011C26.9972 18.9794 26.4497 19.1861 26.043 19.5719C25.5014 20.0861 25.2697 20.8619 25.438 21.5952L25.6555 22.5444L24.6839 22.6127C22.1705 22.8011 20.4289 21.7252 19.233 20.6119C19.238 22.2952 19.7972 24.5411 22.3389 25.9894L23.1372 26.4444L22.6064 27.1952C22.0539 27.9777 21.2222 28.4769 20.3755 28.7961C20.9347 28.9294 21.5097 28.9977 22.083 28.9977H22.093H22.0939ZM22.0939 30.6669C22.0722 30.6669 22.0489 30.666 22.0272 30.6644C20.6914 30.6552 19.3514 30.3444 18.148 29.7619C17.6955 29.5419 17.4397 29.0602 17.5122 28.5602C17.5855 28.0544 17.9739 27.6577 18.4772 27.576C19.348 27.4327 20.0705 27.1777 20.5939 26.8369C17.363 24.421 17.448 20.8044 17.6572 19.2727C17.7189 18.8244 18.038 18.4502 18.4697 18.3194C18.908 18.186 19.3622 18.3194 19.6622 18.6602C20.9422 20.111 22.2214 20.8402 23.7214 20.951C23.7647 19.9802 24.178 19.0444 24.8955 18.3627C25.6264 17.6685 26.5822 17.3052 27.5855 17.3352C28.5897 17.366 29.5214 17.7894 30.208 18.5269C30.278 18.6069 30.5397 18.7519 30.8555 18.6102C31.2697 18.4244 31.7405 18.486 32.0839 18.7727C32.4264 19.0569 32.5722 19.5044 32.4655 19.9402C32.1964 21.0494 31.6647 21.7644 31.3964 22.1069C31.2564 26.361 27.7997 30.6669 22.0939 30.6669Z" fill="#231F20"/>
<mask id="mask0_1402_114" style="mask-type:alpha" maskUnits="userSpaceOnUse" x="17" y="17" width="16" height="14">
<path fill-rule="evenodd" clip-rule="evenodd" d="M30.8464 19.5452V19.5468V19.5452ZM22.0939 28.9977C22.1139 28.9977 22.1355 28.9986 22.1555 29.0002C26.9014 28.9694 29.7339 25.3436 29.7339 21.8386C29.7339 21.5202 29.8972 21.3144 30.0422 21.1319C30.1739 20.9652 30.378 20.7086 30.5597 20.3386C29.8989 20.3319 29.3089 20.0386 28.9655 19.6369C28.6064 19.2527 28.0905 19.0177 27.5339 19.0011C26.9972 18.9794 26.4497 19.1861 26.043 19.5719C25.5014 20.0861 25.2697 20.8619 25.438 21.5952L25.6555 22.5444L24.6839 22.6127C22.1705 22.8011 20.4289 21.7252 19.233 20.6119C19.238 22.2952 19.7972 24.5411 22.3389 25.9894L23.1372 26.4444L22.6064 27.1952C22.0539 27.9777 21.2222 28.4769 20.3755 28.7961C20.9347 28.9294 21.5097 28.9977 22.083 28.9977H22.093H22.0939ZM22.0939 30.6669C22.0722 30.6669 22.0489 30.666 22.0272 30.6644C20.6914 30.6552 19.3514 30.3444 18.148 29.7619C17.6955 29.5419 17.4397 29.0602 17.5122 28.5602C17.5855 28.0544 17.9739 27.6577 18.4772 27.576C19.348 27.4327 20.0705 27.1777 20.5939 26.8369C17.363 24.421 17.448 20.8044 17.6572 19.2727C17.7189 18.8244 18.038 18.4502 18.4697 18.3194C18.908 18.186 19.3622 18.3194 19.6622 18.6602C20.9422 20.111 22.2214 20.8402 23.7214 20.951C23.7647 19.9802 24.178 19.0444 24.8955 18.3627C25.6264 17.6685 26.5822 17.3052 27.5855 17.3352C28.5897 17.366 29.5214 17.7894 30.208 18.5269C30.278 18.6069 30.5397 18.7519 30.8555 18.6102C31.2697 18.4244 31.7405 18.486 32.0839 18.7727C32.4264 19.0569 32.5722 19.5044 32.4655 19.9402C32.1964 21.0494 31.6647 21.7644 31.3964 22.1069C31.2564 26.361 27.7997 30.6669 22.0939 30.6669Z" fill="white"/>
</mask>
<g mask="url(#mask0_1402_114)">
<rect x="15" y="14" width="20" height="20" fill="black"/>
</g>
</svg>
